{"title":"Teen Line 1 - Cody Lane both holes destroyed and throat abused","uid":10792039,"size":206138187,"categoryP":"porn","categoryS":"movie_clips","magnet":"?xt=urn:btih:b4652814f0ae81ea570e524d152bab7ed4440cd7&amp;dn=Teen+Line+1+-+Cody+Lane+both+holes+destroyed+and+throat+abused&amp;tr=udp%3A%2F%2Ftracker.openbittorrent.com%3A80&amp;tr=udp%3A%2F%2Fopen.demonii.com%3A1337&amp;tr=udp%3A%2F%2Ftracker.coppersurfer.tk%3A6969&amp;tr=udp%3A%2F%2Fexodus.desync.com%3A6969","seeders":8,"leechers":3,"uploader":"ThousandPeers","files":19,"time":1408259238,"description":"Format                                   : Windows Media\nFile size                                : 165 MiB\nDuration                                 : 29mn 55s\nOverall bit rate mode                    : Variable\nOverall bit rate                         : 771 Kbps\nMaximum Overall bit rate                 : 1 015 Kbps\nMovie name                               : Teen Line\nEncoded date                             : UTC 2007-12-28 19:14:29.765\n\n\nVideo\n\nID                                       : 2\nFormat                                   : WMV2\nCodec ID                                 : WMV2\nCodec ID/Info                            : Windows Media Video 8\nDuration                                 : 29mn 55s\nBit rate mode                            : Variable\nBit rate                                 : 675 Kbps\nWidth                                    : 480 pixels\nHeight                                   : 352 pixels\nDisplay aspect ratio                     : 4:3\nFrame rate                               : 23.976 fps\nBit depth                                : 8 bits\nBits/(Pixel*Frame)                       : 0.167\nStream size                              : 144 MiB (88%)\nLanguage                                 : English (US)\n\n\nAudio\n\nID                                       : 1\nFormat                                   : WMA\nFormat version                           : Version 2\nCodec ID                                 : 161\nCodec ID/Info                            : Windows Media Audio\nDuration                                 : 29mn 55s\nBit rate mode                            : Constant\nBit rate                                 : 64.0 Kbps\nChannel(s)                               : 2 channels\nSampling rate                            : 44.1 KHz\nBit depth                                : 16 bits\nStream size                              : 13.7 MiB (8%)\nLanguage                                 : English (US)\n","torrent":{"xt":"urn:btih:b4652814f0ae81ea570e524d152bab7ed4440cd7","amp;dn":"Teen+Line+1+-+Cody+Lane+both+holes+destroyed+and+throat+abused","amp;tr":["udp%3A%2F%2Ftracker.openbittorrent.com%3A80","udp%3A%2F%2Fopen.demonii.com%3A1337","udp%3A%2F%2Ftracker.coppersurfer.tk%3A6969","udp%3A%2F%2Fexodus.desync.com%3A6969"],"infoHash":"b4652814f0ae81ea570e524d152bab7ed4440cd7","infoHashBuffer":{"type":"Buffer","data":[180,101,40,20,240,174,129,234,87,14,82,77,21,43,171,126,212,68,12,215]},"announce":[],"urlList":[]}}